<svg width="108" height="36" viewBox="0 0 108 36" fill="none" xmlns="http://www.w3.org/2000/svg">
<path fill-rule="evenodd" clip-rule="evenodd" d="M2.88959 1.15622V26.4065C2.88959 26.7164 2.77622 27.0137 2.57442 27.2328C2.37262 27.452 2.09891 27.5751 1.81352 27.5751H1.56167C0.967371 27.5751 0.485596 27.0519 0.485596 26.4065V1.15622C0.491871 0.515649 0.971813 -3.62487e-05 1.56167 1.91108e-09H1.81352C2.40338 -3.62487e-05 2.88332 0.515649 2.88959 1.15622ZM16.0895 17.1625C16.3167 16.9275 16.6228 16.804 16.9362 16.8211L16.879 16.8459C17.2121 16.809 17.5434 16.9324 17.7856 17.1835C18.0278 17.4346 18.1567 17.7882 18.1382 18.1513V24.9892C18.1382 25.7101 17.6 26.2946 16.9362 26.2946C16.2724 26.2946 15.7342 25.7101 15.7342 24.9892V18.0643C15.7338 17.7235 15.8622 17.3975 16.0895 17.1625ZM19.5243 20.7621C19.5243 20.0755 20.0368 19.5189 20.6691 19.5189C21.0003 19.4858 21.3284 19.6109 21.568 19.8615C21.8076 20.1122 21.9349 20.4636 21.9169 20.8243V22.3286C21.9169 23.0461 21.3813 23.6278 20.7206 23.6278C20.0599 23.6278 19.5243 23.0461 19.5243 22.3286V20.7621ZM10.4792 31.1059V22.1172C10.1212 22.4128 9.68086 22.5663 9.23138 22.5524C8.81907 22.5413 8.4197 22.3938 8.08662 22.1297V31.1059C8.08662 31.8234 8.62221 32.4051 9.28289 32.4051C9.94358 32.4051 10.4792 31.8234 10.4792 31.1059ZM5.48841 25.5238C5.07648 25.5104 4.67772 25.3631 4.34364 25.1011V34.1146C4.34364 34.8355 4.8818 35.42 5.54564 35.42C6.20949 35.42 6.74764 34.8355 6.74764 34.1146V25.1632C6.37382 25.4256 5.93276 25.5519 5.48841 25.5238ZM13.1356 19.4817C12.7044 19.4785 12.2847 19.3308 11.9336 19.059V28.0973C11.9336 28.8183 12.4718 29.4027 13.1356 29.4027C13.7994 29.4027 14.3376 28.8183 14.3376 28.0973V19.0714C13.9744 19.3652 13.5311 19.5184 13.0784 19.5065L13.1356 19.4817ZM5.61395 24.5664H5.3621C4.7678 24.5664 4.28603 24.0432 4.28603 23.3978V4.16482C4.2923 3.52426 4.77224 3.00857 5.3621 3.00861H5.61395C6.20381 3.00857 6.68375 3.52426 6.69002 4.16482V23.4226C6.69002 24.0681 6.20825 24.5913 5.61395 24.5913V24.5664ZM9.14008 21.6075H9.40338C9.99136 21.6075 10.468 21.0899 10.468 20.4513V7.14863C10.468 6.50803 9.9932 5.9868 9.40338 5.97998H9.14008C8.85573 5.97996 8.58319 6.10348 8.3832 6.32301C8.18321 6.54254 8.0724 6.83983 8.07545 7.14863V20.4513C8.07545 21.0899 8.5521 21.6075 9.14008 21.6075ZM13.1924 18.5616H12.952C12.3622 18.5616 11.8822 18.0459 11.8759 17.4054V10.2443C11.8569 9.92163 11.9619 9.60484 12.1658 9.36927C12.3697 9.13369 12.6543 9.00038 12.952 9.00104H13.2039C13.7982 9.00104 14.2799 9.52426 14.2799 10.1697V17.3805C14.283 17.6926 14.171 17.993 13.9688 18.2149C13.7667 18.4368 13.4912 18.5616 13.2039 18.5616H13.1924ZM16.7407 15.8886H16.9925H17.004C17.5938 15.8818 18.0686 15.3606 18.0686 14.72V12.8675C18.0623 12.227 17.5824 11.7113 16.9925 11.7113H16.7407C16.1508 11.7113 15.6709 12.227 15.6646 12.8675V14.72C15.6646 15.3654 16.1464 15.8886 16.7407 15.8886Z" fill="#9893A3" fill-opacity="0.6"/>
<path d="M43.1111 16.5849C43.1111 18.1083 42.7859 19.2978 42.1355 20.1533C41.4851 21.0029 40.5769 21.4277 39.4109 21.4277C38.3796 21.4277 37.5564 21.0322 36.9412 20.2411L36.8269 21.2519H34.5417V7.75189H37.0818V12.5947C37.6677 11.9091 38.4382 11.5663 39.3933 11.5663C40.5535 11.5663 41.4617 11.9941 42.1179 12.8495C42.78 13.6992 43.1111 14.8974 43.1111 16.4443V16.5849ZM40.571 16.4003C40.571 15.4394 40.4187 14.7392 40.114 14.2997C39.8093 13.8544 39.3552 13.6318 38.7517 13.6318C37.9431 13.6318 37.3865 13.9628 37.0818 14.6249V18.3779C37.3923 19.0458 37.9548 19.3798 38.7693 19.3798C39.5896 19.3798 40.1287 18.9755 40.3865 18.1669C40.5095 17.7802 40.571 17.1913 40.571 16.4003ZM51.3796 20.2851C50.7527 21.0468 49.8855 21.4277 48.7781 21.4277C47.7585 21.4277 46.9792 21.1347 46.4402 20.5488C45.907 19.9628 45.6345 19.1044 45.6228 17.9736V11.7421H48.1628V17.8857C48.1628 18.8759 48.614 19.371 49.5164 19.371C50.3777 19.371 50.9695 19.0722 51.2917 18.4745V11.7421H53.8406V21.2519H51.45L51.3796 20.2851ZM60.3074 17.6572L62.0652 11.7421H64.7898L60.9666 22.7285L60.7556 23.2294C60.1873 24.4716 59.2498 25.0927 57.9431 25.0927C57.574 25.0927 57.199 25.037 56.8181 24.9257V23.0009L57.2048 23.0097C57.6853 23.0097 58.0427 22.9365 58.2771 22.79C58.5173 22.6435 58.7048 22.4003 58.8396 22.0605L59.1384 21.2783L55.8074 11.7421H58.5408L60.3074 17.6572ZM68.1453 11.7421L68.1804 13.289C68.532 12.7148 68.9714 12.2841 69.4988 11.997C70.0261 11.7099 70.6121 11.5663 71.2566 11.5663C72.7566 11.5663 73.7087 12.1816 74.113 13.412C74.4529 12.8203 74.907 12.3661 75.4753 12.0497C76.0437 11.7275 76.6707 11.5663 77.3562 11.5663C79.3953 11.5663 80.4353 12.6796 80.4763 14.9062V21.2519H79.4216V14.9853C79.4158 14.1357 79.2312 13.5058 78.8679 13.0956C78.5105 12.6855 77.9246 12.4804 77.1101 12.4804C76.3542 12.4921 75.7156 12.7382 75.1941 13.2187C74.6726 13.6933 74.3826 14.2734 74.324 14.9589V21.2519H73.2693V14.9062C73.2634 14.0917 73.0701 13.4853 72.6892 13.0869C72.3142 12.6826 71.7341 12.4804 70.949 12.4804C70.2869 12.4804 69.7185 12.6708 69.2439 13.0517C68.7693 13.4267 68.4177 13.9863 68.1892 14.7304V21.2519H67.1345V11.7421H68.1453ZM87.8308 21.4277C87.0222 21.4277 86.2898 21.2285 85.6335 20.83C84.9832 20.4316 84.4763 19.8779 84.113 19.1689C83.7498 18.454 83.5681 17.6542 83.5681 16.7695V16.3915C83.5681 15.4775 83.7439 14.6542 84.0955 13.9218C84.4529 13.1894 84.948 12.6152 85.5808 12.1992C86.2136 11.7773 86.8992 11.5663 87.6375 11.5663C88.7917 11.5663 89.7058 11.9619 90.3796 12.7529C91.0593 13.538 91.3992 14.6132 91.3992 15.9785V16.5673H84.614V16.7695C84.614 17.8476 84.9216 18.747 85.5369 19.4677C86.158 20.1826 86.9373 20.54 87.8748 20.54C88.4373 20.54 88.9324 20.4374 89.3601 20.2324C89.7937 20.0273 90.1863 19.6992 90.5378 19.248L91.197 19.749C90.4236 20.8681 89.3015 21.4277 87.8308 21.4277ZM87.6375 12.4628C86.8464 12.4628 86.1785 12.7529 85.6335 13.3329C85.0945 13.913 84.7664 14.6923 84.6492 15.6708H90.3533V15.5566C90.324 14.6425 90.0632 13.8984 89.571 13.3242C89.0789 12.7499 88.4343 12.4628 87.6375 12.4628Z" fill="#9893A3" fill-opacity="0.6"/>
</svg>
