<svg width="85" height="33" viewBox="0 0 85 33" fill="none" xmlns="http://www.w3.org/2000/svg">
<path d="M0.85791 18.8352H3.37623V29.5703H0.85791V18.8352Z" fill="#9893A3" fill-opacity="0.6"/>
<path fill-rule="evenodd" clip-rule="evenodd" d="M7.59848 22.2866C5.92372 22.8921 4.83372 24.3154 4.83712 25.8922C4.82575 26.9281 5.29465 27.9244 6.13803 28.6562C6.9814 29.388 8.12821 29.7938 9.31973 29.782C11.1335 29.782 12.7686 28.8317 13.4619 27.3746C14.1552 25.9175 13.7702 24.2407 12.4864 23.1267C11.2027 22.0128 9.27325 21.6812 7.59848 22.2866ZM9.28688 24.2432C10.3557 24.2273 11.2395 24.9632 11.2671 25.8922C11.2954 26.3523 11.1011 26.8018 10.7312 27.1317C10.3612 27.4616 9.84938 27.642 9.31959 27.6291C8.25066 27.6288 7.38179 26.8795 7.37281 25.9502C7.36384 25.021 8.2181 24.2591 9.28688 24.2432Z" fill="#9893A3" fill-opacity="0.6"/>
<path fill-rule="evenodd" clip-rule="evenodd" d="M34.0457 29.2373V22.246L31.5694 22.2679V22.9977C30.9663 22.3583 30.0515 22.0039 29.1014 22.0417C26.7277 22.0417 24.8035 23.7146 24.8035 25.7782C24.8035 27.8418 26.7277 29.5146 29.1014 29.5146C30.0523 29.5559 30.9688 29.2009 31.5694 28.5586V29.2373C31.6181 29.6883 31.4232 30.1335 31.0419 30.4422C30.6605 30.7509 30.1359 30.8881 29.6219 30.8136C28.8333 30.8704 28.0848 30.503 27.7331 29.8868L25.5674 30.9742C26.4139 32.1721 27.9587 32.8591 29.5715 32.7549C31.8212 32.7549 34.0457 31.7113 34.0457 29.2373ZM30.3648 24.0819C31.1268 24.3807 31.6035 25.052 31.5693 25.7781C31.5848 26.248 31.3711 26.7016 30.9809 27.027C30.5907 27.3523 30.0603 27.519 29.521 27.4858C28.6851 27.4852 27.9335 27.043 27.622 26.3686C27.3105 25.6943 27.5017 24.923 28.105 24.42C28.7084 23.917 29.6027 23.7832 30.3648 24.0819Z" fill="#9893A3" fill-opacity="0.6"/>
<path fill-rule="evenodd" clip-rule="evenodd" d="M17.4342 22.3378C15.7594 22.9433 14.6694 24.3665 14.6728 25.9434C14.6614 26.9793 15.1303 27.9755 15.9737 28.7073C16.8171 29.4392 17.9639 29.8449 19.1554 29.8331C20.9692 29.8331 22.6043 28.8828 23.2976 27.4257C23.9909 25.9686 23.6059 24.2919 22.3221 23.1779C21.0384 22.0639 19.1089 21.7323 17.4342 22.3378ZM19.1226 24.2943C20.1914 24.2784 21.0752 25.0144 21.1028 25.9434H21.086C21.1141 26.4009 20.922 26.8479 20.5558 27.1774C20.1896 27.5068 19.6822 27.689 19.1553 27.6803C18.0864 27.6799 17.2175 26.9307 17.2085 26.0014C17.1995 25.0721 18.0538 24.3102 19.1226 24.2943Z" fill="#9893A3" fill-opacity="0.6"/>
<path fill-rule="evenodd" clip-rule="evenodd" d="M37.04 18.9155C36.1962 18.9155 35.5122 19.5102 35.5122 20.2437C35.5168 20.9756 36.1981 21.5679 37.04 21.5719C37.8838 21.5719 38.5678 20.9773 38.5678 20.2437C38.5678 19.5102 37.8838 18.9155 37.04 18.9155ZM38.2907 22.2142H35.7724V29.5704H38.2907V22.2142Z" fill="#9893A3" fill-opacity="0.6"/>
<path fill-rule="evenodd" clip-rule="evenodd" d="M48.1835 28.5675C48.9415 27.8373 49.333 26.8744 49.2714 25.8922C49.3307 24.9114 48.9381 23.9503 48.1804 23.2217C47.4226 22.4931 46.3622 22.057 45.2337 22.0098C44.2828 21.9701 43.3605 22.2988 42.7153 22.9074V22.2142H40.197V32.5333H42.7153V28.8843C43.3605 29.4929 44.2828 29.8217 45.2337 29.782C46.3637 29.7348 47.4255 29.2977 48.1835 28.5675ZM44.7218 24.1851C45.8212 24.1771 46.725 24.9367 46.7528 25.8922H46.7361C46.7759 26.3755 46.5736 26.8503 46.1811 27.1944C45.7885 27.5384 45.2441 27.7182 44.6878 27.6874C43.5888 27.6632 42.715 26.8775 42.7242 25.9218C42.7335 24.966 43.6225 24.1932 44.7218 24.1851Z" fill="#9893A3" fill-opacity="0.6"/>
<path d="M57.1123 27.3664C57.1123 29.0595 55.4335 29.782 53.5867 29.782C52.0774 29.8982 50.6385 29.2048 49.9519 28.0305L52.1512 26.9431C52.3352 27.4901 52.9328 27.8517 53.5867 27.8116C54.1995 27.8116 54.5017 27.6437 54.5017 27.3518C54.5017 26.5418 50.3045 26.9723 50.3045 24.4327C50.3045 22.8272 51.8658 22.0171 53.6622 22.0171C55.0122 21.9815 56.2782 22.5849 56.9696 23.5934L54.7619 24.6005C54.5626 24.2068 54.1151 23.9522 53.6203 23.951C53.1838 23.951 52.9151 24.097 52.9151 24.367C52.9487 25.2063 57.1123 24.6443 57.1123 27.3664Z" fill="#9893A3" fill-opacity="0.6"/>
<path d="M66.3801 22.2141V29.5703H63.8618V28.8843C63.2676 29.5026 62.3689 29.8363 61.4442 29.7819C59.7654 29.7819 58.2795 28.7238 58.2795 26.7315V22.2141H60.7979V26.4104C60.753 26.7725 60.898 27.133 61.1926 27.3919C61.4872 27.6509 61.9002 27.7809 62.3172 27.7459C63.2406 27.7459 63.887 27.2788 63.887 26.2352V22.2141H66.3801Z" fill="#9893A3" fill-opacity="0.6"/>
<path d="M80.937 25.0601V29.5702H78.4187V25.2499C78.4187 24.5201 78.0074 24.0384 77.2015 24.0384C76.3957 24.0384 75.8752 24.5566 75.8752 25.425V29.5702H73.3569V25.2499C73.3569 24.5201 72.954 24.0384 72.1397 24.0384C71.3255 24.0384 70.8218 24.5566 70.8218 25.425V29.5702H68.3035V22.214H70.8218V22.8927C71.3565 22.2836 72.2095 21.9513 73.0883 22.0096C73.9718 21.9723 74.813 22.3408 75.3044 22.9802C75.8754 22.3121 76.801 21.9457 77.7556 22.0096C79.6695 22.0096 80.937 23.2211 80.937 25.0601Z" fill="#9893A3" fill-opacity="0.6"/>
<path d="M83.0869 22.1703C84.1254 22.1703 84.9672 21.4384 84.9672 20.5356C84.9672 19.6328 84.1254 18.9009 83.0869 18.9009C82.0484 18.9009 81.2065 19.6328 81.2065 20.5356C81.2065 21.4384 82.0484 22.1703 83.0869 22.1703Z" fill="#9893A3" fill-opacity="0.6"/>
<path d="M25.2878 14.3007C29.1538 14.3007 32.2878 11.246 32.2878 7.4777C32.2878 3.70944 29.1538 0.654663 25.2878 0.654663C21.4218 0.654663 18.2878 3.70944 18.2878 7.4777C18.2878 11.246 21.4218 14.3007 25.2878 14.3007Z" fill="#9893A3" fill-opacity="0.4"/>
<path d="M42.7173 14.3007C46.5833 14.3007 49.7173 11.246 49.7173 7.4777C49.7173 3.70944 46.5833 0.654663 42.7173 0.654663C38.8513 0.654663 35.7173 3.70944 35.7173 7.4777C35.7173 11.246 38.8513 14.3007 42.7173 14.3007Z" fill="#CFCFDE" fill-opacity="0.5"/>
<rect x="0.85791" y="0.654663" width="14" height="13.6461" fill="#9893A3" fill-opacity="0.5"/>
</svg>
