<svg width="107" height="28" viewBox="0 0 107 28" fill="none" xmlns="http://www.w3.org/2000/svg">
<path fill-rule="evenodd" clip-rule="evenodd" d="M26.3305 5.12085C27.2271 6.09278 27.9658 7.17721 28.5239 8.34085C29.3368 10.0375 29.755 11.8694 29.7521 13.7208C29.7461 21.1942 23.11 27.2543 14.9141 27.2708C13.0071 27.2699 11.1186 26.9302 9.35397 26.2708C8.09537 25.8148 6.91387 25.1987 5.84461 24.4408C1.29668 21.2804 -0.854957 16.0182 0.313762 10.9143C1.48248 5.81032 5.76356 1.77289 11.3184 0.535925C16.8733 -0.701037 22.7134 1.08261 26.3305 5.12085ZM19.8598 3.91087C18.3072 3.25201 16.6153 2.9107 14.9028 2.91087L14.9138 2.89087C10.8528 2.88811 7.07347 4.78265 4.90001 7.91062C2.72655 11.0386 2.46208 14.9638 4.19927 18.3109C4.69463 17.8363 4.99989 17.2233 5.06564 16.5709C5.46451 14.0583 7.62903 12.0846 10.3845 11.7209C11.9392 11.5923 13.1808 10.4853 13.3565 9.07087C13.7554 6.55829 15.9199 4.58458 18.6754 4.22087C19.0831 4.16423 19.4812 4.06004 19.8598 3.91087ZM5.83341 20.7208C5.87728 20.6841 5.92115 20.6486 5.96502 20.613C6.05275 20.5419 6.14049 20.4708 6.22822 20.3908C7.20388 19.5283 7.83015 18.3897 8.00483 17.1608C8.07566 16.4701 8.41389 15.8249 8.95894 15.3408C9.48342 14.843 10.1894 14.5371 10.9439 14.4808C13.6994 14.1171 15.8639 12.1434 16.2628 9.63082C16.3102 8.90833 16.6503 8.22766 17.2169 7.72082C17.7543 7.23267 18.467 6.93792 19.2238 6.89082C20.4564 6.73618 21.606 6.23653 22.5139 5.46082C23.5476 6.24289 24.4235 7.18371 25.102 8.24082C25.0603 8.29217 25.0125 8.33912 24.9594 8.38082C24.436 8.88301 23.7309 9.19558 22.9745 9.26082C20.2155 9.61826 18.0476 11.5951 17.6556 14.1108C17.4962 15.5302 16.2627 16.6508 14.7055 16.7908C11.9424 17.1517 9.76654 19.1235 9.35374 21.6408C9.29472 22.1295 9.11066 22.5988 8.81637 23.0108C7.69118 22.4017 6.68343 21.628 5.83341 20.7208ZM11.6125 24.1609C12.6821 24.4406 13.7895 24.582 14.9023 24.5809V24.5309C18.5749 24.5179 22.0339 22.9547 24.2696 20.2976C26.5053 17.6406 27.2657 14.1892 26.3289 10.9509C25.4964 11.4877 24.5327 11.8309 23.5216 11.9509C21.9688 12.0953 20.7411 13.2149 20.5827 14.6309C20.1826 17.1466 18.0128 19.1212 15.2532 19.4809C13.7004 19.6253 12.4727 20.7449 12.3143 22.1609C12.2162 22.861 11.9784 23.5389 11.6125 24.1609Z" fill="#9893A3" fill-opacity="0.6"/>
<path d="M40.7908 19.3914H43.0369C43.6879 19.3914 44.0134 19.0007 44.0134 18.2195V13.3367C44.0134 12.5554 43.6879 12.1648 43.0369 12.1648H40.7908C40.1397 12.1648 39.8142 12.5554 39.8142 13.3367V18.2195C39.8142 19.0007 40.1397 19.3914 40.7908 19.3914ZM40.7908 21.1492C38.8376 21.1492 37.8611 20.1726 37.8611 18.2195V6.89136L39.7166 6.01245H39.8142V10.7097C40.0746 10.5079 40.4001 10.407 40.7908 10.407H43.0369C44.99 10.407 45.9666 11.3835 45.9666 13.3367V18.2195C45.9666 20.1726 44.99 21.1492 43.0369 21.1492H40.7908Z" fill="#9893A3" fill-opacity="0.6"/>
<path d="M50.531 8.24878C50.3031 8.0144 50.1892 7.73446 50.1892 7.40894C50.1892 7.0769 50.3031 6.7937 50.531 6.55933C50.7589 6.32495 51.0356 6.20776 51.3611 6.20776C51.6866 6.20776 51.9633 6.32495 52.1912 6.55933C52.419 6.7937 52.533 7.0769 52.533 7.40894C52.533 7.73446 52.419 8.0144 52.1912 8.24878C51.9633 8.48315 51.6866 8.60034 51.3611 8.60034C51.0356 8.60034 50.7589 8.48315 50.531 8.24878ZM50.3845 21.5398V10.8953L52.24 10.0164H52.3376V20.6609L50.4822 21.5398H50.3845Z" fill="#9893A3" fill-opacity="0.6"/>
<path d="M56.7556 21.5398V13.3367C56.7556 11.3835 57.7322 10.407 59.6853 10.407H61.9314C63.8845 10.407 64.8611 11.3835 64.8611 13.3367V20.6609L63.0056 21.5398H62.908V13.3367C62.908 12.5554 62.5824 12.1648 61.9314 12.1648H59.6853C59.0343 12.1648 58.7087 12.5554 58.7087 13.3367V20.6609L56.8533 21.5398H56.7556Z" fill="#9893A3" fill-opacity="0.6"/>
<path d="M71.2322 19.3914H73.283C73.934 19.3914 74.2595 19.0007 74.2595 18.2195V16.8816C74.2595 16.1003 73.934 15.7097 73.283 15.7097H71.2322C70.5811 15.7097 70.2556 16.1003 70.2556 16.8816V18.2195C70.2556 19.0007 70.5811 19.3914 71.2322 19.3914ZM71.2322 21.1492C69.2791 21.1492 68.3025 20.1726 68.3025 18.2195V16.8816C68.3025 14.9285 69.2791 13.9519 71.2322 13.9519H73.283C73.6215 13.9519 73.947 14.0496 74.2595 14.2449V13.3367C74.2595 12.5554 73.934 12.1648 73.283 12.1648H69.7869V12.0671L70.5681 10.407H73.283C75.2361 10.407 76.2126 11.3835 76.2126 13.3367V20.6609L74.3572 21.5398H74.2595V20.8562C74.0121 21.0515 73.6866 21.1492 73.283 21.1492H71.2322Z" fill="#9893A3" fill-opacity="0.6"/>
<path d="M81.4314 21.5398V12.1843H78.9216V12.0867L79.7126 10.407H81.4314V6.89136L83.2869 6.01245H83.3845V10.407H85.8943V10.5046L85.1033 12.1843H83.3845V20.6609L81.5291 21.5398H81.4314Z" fill="#9893A3" fill-opacity="0.6"/>
<path d="M91.533 19.3914H93.7791C94.4301 19.3914 94.7556 19.0007 94.7556 18.2195V13.3367C94.7556 12.5554 94.4301 12.1648 93.7791 12.1648H91.533C90.8819 12.1648 90.5564 12.5554 90.5564 13.3367V18.2195C90.5564 19.0007 90.8819 19.3914 91.533 19.3914ZM91.533 21.1492C89.5798 21.1492 88.6033 20.1726 88.6033 18.2195V13.3367C88.6033 11.3835 89.5798 10.407 91.533 10.407H93.7791C95.7322 10.407 96.7087 11.3835 96.7087 13.3367V18.2195C96.7087 20.1726 95.7322 21.1492 93.7791 21.1492H91.533Z" fill="#9893A3" fill-opacity="0.6"/>
<path d="M100.638 21.5398V13.3367C100.638 11.3835 101.615 10.407 103.568 10.407H106.01V10.5046L105.228 12.1648H103.568C102.917 12.1648 102.592 12.5554 102.592 13.3367V20.6609L100.736 21.5398H100.638Z" fill="#9893A3" fill-opacity="0.6"/>
</svg>
