<svg width="100" height="25" viewBox="0 0 100 25" fill="none" xmlns="http://www.w3.org/2000/svg">
<path fill-rule="evenodd" clip-rule="evenodd" d="M0.758285 11.1019C2.05011 5.00028 6.71273 0.717224 12.0633 0.717224C17.4138 0.717224 22.0765 5.00028 23.3683 11.1019H22.3471C20.6245 11.0721 18.9372 11.6771 17.5222 12.8319C17.4405 12.9014 17.3553 12.9649 17.2669 13.0219H17.1478C17.0594 12.9649 16.9741 12.9014 16.8925 12.8319C13.9724 10.5245 10.1542 10.5245 7.23409 12.8319C7.15242 12.9014 7.06716 12.9649 6.9788 13.0219H6.85967C6.7713 12.9649 6.68604 12.9014 6.60438 12.8319C5.18934 11.6771 3.50205 11.0721 1.77944 11.1019H0.758285ZM20.5098 17.3719C21.034 16.8922 21.6837 16.6412 22.3479 16.6619H23.7179V13.4519H22.3479C21.178 13.4353 20.0349 13.8632 19.0887 14.6719C17.9958 15.6188 16.5055 15.6188 15.4126 14.6719C13.4256 13.0465 10.7876 13.0465 8.80062 14.6719C7.70769 15.6188 6.2174 15.6188 5.12447 14.6719C4.16663 13.8529 3.00711 13.4244 1.82275 13.4519H0.410156V16.6619H1.7802C2.44438 16.6412 3.09407 16.8922 3.61827 17.3719C5.60181 18.9986 8.23818 18.9986 10.2217 17.3719C10.7466 16.8937 11.3958 16.6429 12.0598 16.6619C12.7242 16.6396 13.3743 16.8907 13.8979 17.3719C15.8848 18.9974 18.5229 18.9974 20.5098 17.3719ZM22.3479 22.4019C21.6837 22.3812 21.034 22.6322 20.5098 23.1119C18.5229 24.7374 15.8848 24.7374 13.8979 23.1119C13.3743 22.6307 12.7242 22.3796 12.0598 22.4019C11.3958 22.3829 10.7466 22.6337 10.2217 23.1119C8.23818 24.7386 5.60181 24.7386 3.61827 23.1119C3.09407 22.6322 2.44438 22.3812 1.7802 22.4019H0.410156V19.1919H1.82275C3.00711 19.1644 4.16663 19.5929 5.12447 20.4119C6.2174 21.3588 7.70769 21.3588 8.80062 20.4119C10.7876 18.7865 13.4256 18.7865 15.4126 20.4119C16.5055 21.3588 17.9958 21.3588 19.0887 20.4119C20.0349 19.6032 21.178 19.1753 22.3479 19.1919H23.7179V22.4019H22.3479Z" fill="#9893A3" fill-opacity="0.6"/>
<path d="M34.5425 19.9519C33.4891 19.9519 32.7225 19.6186 32.2425 18.9519C31.7625 18.2719 31.5225 17.3053 31.5225 16.0519V9.89192H33.8225V15.7519C33.8225 16.5653 33.9425 17.1386 34.1825 17.4719C34.4225 17.8053 34.8091 17.9719 35.3425 17.9719C35.7691 17.9719 36.1425 17.8653 36.4625 17.6519C36.7958 17.4386 37.1491 17.0919 37.5225 16.6119V9.89192H39.8225V19.7119H37.9425L37.7625 18.2719H37.7025C37.2758 18.7786 36.8091 19.1853 36.3025 19.4919C35.8091 19.7986 35.2225 19.9519 34.5425 19.9519Z" fill="#9893A3" fill-opacity="0.6"/>
<path d="M41.7357 19.7119V9.89192H43.6357L43.7957 11.2319H43.8757C44.2891 10.7919 44.7357 10.4186 45.2157 10.1119C45.7091 9.80525 46.2624 9.65192 46.8757 9.65192C47.5957 9.65192 48.1691 9.80525 48.5957 10.1119C49.0357 10.4186 49.3691 10.8519 49.5957 11.4119C50.0624 10.9053 50.5491 10.4853 51.0557 10.1519C51.5624 9.81859 52.1291 9.65192 52.7557 9.65192C53.7957 9.65192 54.5624 9.99192 55.0557 10.6719C55.5491 11.3386 55.7957 12.2986 55.7957 13.5519V19.7119H53.4757V13.8519C53.4757 13.0386 53.3491 12.4653 53.0957 12.1319C52.8557 11.7986 52.4824 11.6319 51.9757 11.6319C51.3624 11.6319 50.6757 12.0386 49.9157 12.8519V19.7119H47.6157V13.8519C47.6157 13.0386 47.4891 12.4653 47.2357 12.1319C46.9957 11.7986 46.6157 11.6319 46.0957 11.6319C45.4824 11.6319 44.7957 12.0386 44.0357 12.8519V19.7119H41.7357Z" fill="#9893A3" fill-opacity="0.6"/>
<path d="M62.3512 19.9519C61.8979 19.9519 61.4379 19.8453 60.9712 19.6319C60.5179 19.4053 60.0845 19.0853 59.6712 18.6719H59.6112L59.4112 19.7119H57.5912V5.59192H59.8912V9.23192L59.8312 10.8719C60.2445 10.5119 60.6912 10.2186 61.1712 9.99192C61.6645 9.76525 62.1645 9.65192 62.6712 9.65192C63.2845 9.65192 63.8312 9.77192 64.3112 10.0119C64.7912 10.2386 65.1979 10.5719 65.5312 11.0119C65.8645 11.4386 66.1179 11.9586 66.2912 12.5719C66.4645 13.1853 66.5512 13.8719 66.5512 14.6319C66.5512 15.4719 66.4312 16.2253 66.1912 16.8919C65.9645 17.5453 65.6579 18.0986 65.2712 18.5519C64.8845 19.0053 64.4379 19.3519 63.9312 19.5919C63.4245 19.8319 62.8979 19.9519 62.3512 19.9519ZM61.8712 18.0519C62.5245 18.0519 63.0712 17.7719 63.5112 17.2119C63.9512 16.6386 64.1712 15.7919 64.1712 14.6719C64.1712 13.6853 64.0045 12.9186 63.6712 12.3719C63.3379 11.8253 62.7979 11.5519 62.0512 11.5519C61.3579 11.5519 60.6379 11.9186 59.8912 12.6519V17.2319C60.2379 17.5386 60.5779 17.7519 60.9112 17.8719C61.2579 17.9919 61.5779 18.0519 61.8712 18.0519Z" fill="#9893A3" fill-opacity="0.6"/>
<path d="M67.8607 19.7119V9.89192H69.7607L69.9207 11.6319H70.0007C70.3474 10.9919 70.7674 10.5053 71.2607 10.1719C71.7541 9.82525 72.2607 9.65192 72.7807 9.65192C73.2474 9.65192 73.6207 9.71859 73.9007 9.85192L73.5007 11.8519C73.3274 11.7986 73.1674 11.7586 73.0207 11.7319C72.8741 11.7053 72.6941 11.6919 72.4807 11.6919C72.0941 11.6919 71.6874 11.8453 71.2607 12.1519C70.8341 12.4453 70.4674 12.9653 70.1607 13.7119V19.7119H67.8607Z" fill="#9893A3" fill-opacity="0.6"/>
<path d="M78.3264 19.9519C77.6464 19.9519 77.013 19.8386 76.4264 19.6119C75.8397 19.3719 75.3264 19.0319 74.8864 18.5919C74.4464 18.1519 74.0997 17.6186 73.8464 16.9919C73.6064 16.3519 73.4864 15.6253 73.4864 14.8119C73.4864 14.0119 73.613 13.2919 73.8664 12.6519C74.1197 12.0119 74.453 11.4719 74.8664 11.0319C75.293 10.5919 75.7797 10.2519 76.3264 10.0119C76.873 9.77192 77.433 9.65192 78.0064 9.65192C78.673 9.65192 79.2597 9.76525 79.7664 9.99192C80.273 10.2186 80.693 10.5386 81.0264 10.9519C81.373 11.3653 81.633 11.8586 81.8064 12.4319C81.9797 13.0053 82.0664 13.6319 82.0664 14.3119C82.0664 14.5386 82.053 14.7519 82.0264 14.9519C82.013 15.1519 81.993 15.3119 81.9664 15.4319H75.7264C75.833 16.3119 76.1397 16.9919 76.6464 17.4719C77.1664 17.9386 77.8264 18.1719 78.6264 18.1719C79.053 18.1719 79.4464 18.1119 79.8064 17.9919C80.1797 17.8586 80.5464 17.6786 80.9064 17.4519L81.6864 18.8919C81.2197 19.1986 80.6997 19.4519 80.1264 19.6519C79.553 19.8519 78.953 19.9519 78.3264 19.9519ZM75.7064 13.8719H80.0664C80.0664 13.1119 79.8997 12.5186 79.5664 12.0919C79.2464 11.6519 78.7464 11.4319 78.0664 11.4319C77.4797 11.4319 76.9664 11.6386 76.5264 12.0519C76.0864 12.4653 75.813 13.0719 75.7064 13.8719Z" fill="#9893A3" fill-opacity="0.6"/>
<path d="M85.5031 19.9519C84.6764 19.9519 84.0964 19.7053 83.7631 19.2119C83.4298 18.7186 83.2631 18.0453 83.2631 17.1919V5.59192H85.5631V17.3119C85.5631 17.5919 85.6164 17.7919 85.7231 17.9119C85.8298 18.0186 85.9431 18.0719 86.0631 18.0719C86.1164 18.0719 86.1631 18.0719 86.2031 18.0719C86.2564 18.0719 86.3298 18.0586 86.4231 18.0319L86.7231 19.7519C86.4164 19.8853 86.0098 19.9519 85.5031 19.9519Z" fill="#9893A3" fill-opacity="0.6"/>
<path d="M89.9328 19.9519C89.1061 19.9519 88.5261 19.7053 88.1928 19.2119C87.8594 18.7186 87.6928 18.0453 87.6928 17.1919V5.59192H89.9928V17.3119C89.9928 17.5919 90.0461 17.7919 90.1528 17.9119C90.2594 18.0186 90.3728 18.0719 90.4928 18.0719C90.5461 18.0719 90.5928 18.0719 90.6328 18.0719C90.6861 18.0719 90.7594 18.0586 90.8528 18.0319L91.1528 19.7519C90.8461 19.8853 90.4394 19.9519 89.9328 19.9519Z" fill="#9893A3" fill-opacity="0.6"/>
<path d="M94.5025 19.9519C93.6358 19.9519 92.9358 19.6919 92.4025 19.1719C91.8691 18.6386 91.6025 17.9386 91.6025 17.0719C91.6025 16.5519 91.7091 16.0919 91.9225 15.6919C92.1491 15.2786 92.4958 14.9253 92.9625 14.6319C93.4425 14.3386 94.0425 14.0919 94.7625 13.8919C95.4958 13.6919 96.3691 13.5386 97.3825 13.4319C97.3691 13.1786 97.3291 12.9386 97.2625 12.7119C97.2091 12.4719 97.1091 12.2653 96.9625 12.0919C96.8291 11.9053 96.6491 11.7653 96.4225 11.6719C96.1958 11.5653 95.9158 11.5119 95.5825 11.5119C95.1025 11.5119 94.6291 11.6053 94.1625 11.7919C93.7091 11.9786 93.2625 12.2053 92.8225 12.4719L91.9825 10.9319C92.5291 10.5853 93.1425 10.2853 93.8225 10.0319C94.5025 9.77859 95.2358 9.65192 96.0225 9.65192C97.2491 9.65192 98.1625 10.0186 98.7625 10.7519C99.3758 11.4719 99.6825 12.5186 99.6825 13.8919V19.7119H97.7825L97.6225 18.6319H97.5425C97.1025 19.0053 96.6291 19.3186 96.1225 19.5719C95.6291 19.8253 95.0891 19.9519 94.5025 19.9519ZM95.2425 18.1519C95.6425 18.1519 96.0025 18.0586 96.3225 17.8719C96.6558 17.6853 97.0091 17.4186 97.3825 17.0719V14.8719C96.7158 14.9519 96.1558 15.0586 95.7025 15.1919C95.2491 15.3253 94.8825 15.4786 94.6025 15.6519C94.3225 15.8119 94.1225 15.9986 94.0025 16.2119C93.8825 16.4253 93.8225 16.6519 93.8225 16.8919C93.8225 17.3319 93.9558 17.6519 94.2225 17.8519C94.4891 18.0519 94.8291 18.1519 95.2425 18.1519Z" fill="#9893A3" fill-opacity="0.6"/>
</svg>
