<svg width="109" height="36" viewBox="0 0 109 36" fill="none" xmlns="http://www.w3.org/2000/svg">
<path fill-rule="evenodd" clip-rule="evenodd" d="M3.27303 1.15622V26.4065C3.27303 26.7164 3.15937 27.0137 2.95707 27.2328C2.75476 27.452 2.48037 27.5751 2.19427 27.5751H1.94179C1.34601 27.5751 0.863037 27.0519 0.863037 26.4065V1.15622C0.869328 0.515649 1.35047 -3.62487e-05 1.94179 1.91108e-09H2.19427C2.7856 -3.62487e-05 3.26674 0.515649 3.27303 1.15622ZM16.5057 17.1625C16.7335 16.9275 17.0403 16.804 17.3545 16.8211L17.2971 16.8459C17.6311 16.809 17.9632 16.9324 18.206 17.1834C18.4489 17.4345 18.578 17.7882 18.5595 18.1513V24.9892C18.5595 25.7101 18.02 26.2946 17.3545 26.2946C16.689 26.2946 16.1495 25.7101 16.1495 24.9892V18.0643C16.1491 17.7235 16.2779 17.3975 16.5057 17.1625ZM19.9494 20.7621C19.9494 20.0755 20.4632 19.5189 21.097 19.5189C21.429 19.4859 21.758 19.6109 21.9981 19.8616C22.2383 20.1122 22.3659 20.4636 22.3479 20.8243V22.3286C22.3479 23.0462 21.8109 23.6278 21.1486 23.6278C20.4863 23.6278 19.9494 23.0462 19.9494 22.3286V20.7621ZM10.8819 31.1059V22.1173C10.523 22.4128 10.0816 22.5663 9.63098 22.5524C9.21764 22.5413 8.81727 22.3938 8.48336 22.1297V31.1059C8.48336 31.8234 9.02029 32.4051 9.68262 32.4051C10.3449 32.4051 10.8819 31.8234 10.8819 31.1059ZM5.87818 25.5238C5.46523 25.5104 5.06548 25.3631 4.73057 25.1011V34.1146C4.73057 34.8355 5.27006 35.42 5.93556 35.42C6.60106 35.42 7.14055 34.8355 7.14055 34.1146V25.1632C6.7658 25.4256 6.32364 25.5519 5.87818 25.5238ZM13.5443 19.4816C13.1121 19.4784 12.6913 19.3308 12.3394 19.0589V28.0973C12.3394 28.8183 12.8788 29.4027 13.5443 29.4027C14.2099 29.4027 14.7493 28.8183 14.7493 28.0973V19.0714C14.3853 19.3652 13.9408 19.5184 13.487 19.5065L13.5443 19.4816ZM6.00443 24.5665H5.75196C5.15618 24.5665 4.6732 24.0432 4.6732 23.3978V4.16484C4.67949 3.52428 5.16063 3.00859 5.75196 3.00863H6.00443C6.59576 3.00859 7.0769 3.52428 7.08319 4.16484V23.4227C7.08319 24.0681 6.60021 24.5913 6.00443 24.5913V24.5665ZM9.53917 21.6076H9.80312C10.3926 21.6076 10.8704 21.0899 10.8704 20.4513V7.14864C10.8704 6.50804 10.3944 5.98681 9.80312 5.97999H9.53917C9.25411 5.97998 8.98089 6.1035 8.7804 6.32303C8.57992 6.54255 8.46882 6.83985 8.47189 7.14864V20.4513C8.47189 21.0899 8.94973 21.6076 9.53917 21.6076ZM13.6015 18.5616H13.3605C12.7692 18.5616 12.2881 18.046 12.2818 17.4054V10.2443C12.2627 9.92165 12.3679 9.60487 12.5723 9.36929C12.7767 9.13372 13.0621 9.00041 13.3605 9.00107H13.613C14.2088 9.00107 14.6918 9.52429 14.6918 10.1697V17.3805C14.6948 17.6926 14.5825 17.9931 14.3799 18.2149C14.1772 18.4368 13.9011 18.5616 13.613 18.5616H13.6015ZM17.1591 15.8886H17.4115H17.423C18.0143 15.8818 18.4903 15.3606 18.4903 14.72V12.8675C18.484 12.227 18.0029 11.7113 17.4115 11.7113H17.1591C16.5677 11.7113 16.0866 12.227 16.0803 12.8675V14.72C16.0803 15.3654 16.5633 15.8886 17.1591 15.8886Z" fill="#9893A3" fill-opacity="0.6"/>
<path d="M43.5708 16.5848C43.5708 18.1083 43.2456 19.2977 42.5952 20.1532C41.9448 21.0028 41.0366 21.4276 39.8706 21.4276C38.8394 21.4276 38.0161 21.0321 37.4009 20.2411L37.2866 21.2518H35.0015V7.75183H37.5415V12.5946C38.1274 11.9091 38.8979 11.5663 39.853 11.5663C41.0132 11.5663 41.9214 11.994 42.5776 12.8495C43.2397 13.6991 43.5708 14.8973 43.5708 16.4442V16.5848ZM41.0308 16.4003C41.0308 15.4393 40.8784 14.7391 40.5737 14.2997C40.269 13.8544 39.8149 13.6317 39.2114 13.6317C38.4028 13.6317 37.8462 13.9628 37.5415 14.6249V18.3778C37.8521 19.0458 38.4146 19.3798 39.229 19.3798C40.0493 19.3798 40.5884 18.9755 40.8462 18.1669C40.9692 17.7802 41.0308 17.1913 41.0308 16.4003ZM51.8394 20.285C51.2124 21.0468 50.3452 21.4276 49.2378 21.4276C48.2183 21.4276 47.439 21.1346 46.8999 20.5487C46.3667 19.9628 46.0942 19.1044 46.0825 17.9735V11.7421H48.6226V17.8856C48.6226 18.8759 49.0737 19.371 49.9761 19.371C50.8374 19.371 51.4292 19.0721 51.7515 18.4745V11.7421H54.3003V21.2518H51.9097L51.8394 20.285ZM60.7671 17.6571L62.5249 11.7421H65.2495L61.4263 22.7284L61.2153 23.2294C60.647 24.4716 59.7095 25.0927 58.4028 25.0927C58.0337 25.0927 57.6587 25.037 57.2778 24.9257V23.0009L57.6646 23.0096C58.145 23.0096 58.5024 22.9364 58.7368 22.7899C58.9771 22.6434 59.1646 22.4003 59.2993 22.0604L59.5981 21.2782L56.2671 11.7421H59.0005L60.7671 17.6571ZM68.605 11.7421L68.6401 13.2889C68.9917 12.7147 69.4312 12.2841 69.9585 11.9969C70.4858 11.7098 71.0718 11.5663 71.7163 11.5663C73.2163 11.5663 74.1685 12.1815 74.5728 13.412C74.9126 12.8202 75.3667 12.3661 75.9351 12.0497C76.5034 11.7274 77.1304 11.5663 77.8159 11.5663C79.855 11.5663 80.895 12.6796 80.936 14.9061V21.2518H79.8813V14.9852C79.8755 14.1356 79.6909 13.5057 79.3276 13.0956C78.9702 12.6854 78.3843 12.4803 77.5698 12.4803C76.814 12.4921 76.1753 12.7382 75.6538 13.2186C75.1323 13.6932 74.8423 14.2733 74.7837 14.9589V21.2518H73.729V14.9061C73.7231 14.0917 73.5298 13.4852 73.1489 13.0868C72.7739 12.6825 72.1938 12.4803 71.4087 12.4803C70.7466 12.4803 70.1782 12.6708 69.7036 13.0516C69.229 13.4266 68.8774 13.9862 68.6489 14.7303V21.2518H67.5942V11.7421H68.605ZM88.2905 21.4276C87.4819 21.4276 86.7495 21.2284 86.0933 20.83C85.4429 20.4315 84.936 19.8778 84.5728 19.1688C84.2095 18.454 84.0278 17.6542 84.0278 16.7694V16.3915C84.0278 15.4774 84.2036 14.6542 84.5552 13.9218C84.9126 13.1893 85.4077 12.6151 86.0405 12.1991C86.6733 11.7772 87.3589 11.5663 88.0972 11.5663C89.2515 11.5663 90.1655 11.9618 90.8394 12.7528C91.519 13.538 91.8589 14.6132 91.8589 15.9784V16.5673H85.0737V16.7694C85.0737 17.8475 85.3813 18.7469 85.9966 19.4677C86.6177 20.1825 87.397 20.5399 88.3345 20.5399C88.897 20.5399 89.3921 20.4374 89.8198 20.2323C90.2534 20.0272 90.646 19.6991 90.9976 19.2479L91.6567 19.7489C90.8833 20.868 89.7612 21.4276 88.2905 21.4276ZM88.0972 12.4628C87.3062 12.4628 86.6382 12.7528 86.0933 13.3329C85.5542 13.913 85.2261 14.6923 85.1089 15.6708H90.813V15.5565C90.7837 14.6425 90.5229 13.8983 90.0308 13.3241C89.5386 12.7499 88.894 12.4628 88.0972 12.4628Z" fill="#9893A3" fill-opacity="0.6"/>
</svg>
