<svg width="101" height="25" viewBox="0 0 101 25" fill="none" xmlns="http://www.w3.org/2000/svg">
<path fill-rule="evenodd" clip-rule="evenodd" d="M1.16869 11.2873C2.46051 5.18565 7.12313 0.902588 12.4737 0.902588C17.8242 0.902588 22.4869 5.18565 23.7787 11.2873H22.7575C21.0349 11.2575 19.3476 11.8625 17.9326 13.0173C17.8509 13.0868 17.7657 13.1502 17.6773 13.2073H17.5582C17.4698 13.1502 17.3845 13.0868 17.3029 13.0173C14.3828 10.7098 10.5646 10.7098 7.64449 13.0173C7.56282 13.0868 7.47756 13.1502 7.3892 13.2073H7.27007C7.1817 13.1502 7.09644 13.0868 7.01478 13.0173C5.59975 11.8625 3.91245 11.2575 2.18984 11.2873H1.16869ZM20.9202 17.5573C21.4444 17.0776 22.0941 16.8266 22.7583 16.8473H24.1283V13.6373H22.7583C21.5884 13.6207 20.4453 14.0486 19.4991 14.8573C18.4062 15.8042 16.9159 15.8042 15.823 14.8573C13.836 13.2319 11.198 13.2319 9.21102 14.8573C8.11809 15.8042 6.6278 15.8042 5.53487 14.8573C4.57703 14.0382 3.41751 13.6098 2.23315 13.6373H0.820557V16.8473H2.1906C2.85478 16.8266 3.50447 17.0776 4.02868 17.5573C6.01221 19.1839 8.64859 19.1839 10.6321 17.5573C11.157 17.079 11.8062 16.8283 12.4702 16.8473C13.1346 16.8249 13.7847 17.0761 14.3083 17.5573C16.2952 19.1827 18.9333 19.1827 20.9202 17.5573ZM22.7583 22.5873C22.0941 22.5666 21.4444 22.8176 20.9202 23.2973C18.9333 24.9227 16.2952 24.9227 14.3083 23.2973C13.7847 22.8161 13.1346 22.5649 12.4702 22.5873C11.8062 22.5683 11.157 22.819 10.6321 23.2973C8.64859 24.9239 6.01221 24.9239 4.02868 23.2973C3.50447 22.8176 2.85478 22.5666 2.1906 22.5873H0.820557V19.3773H2.23315C3.41751 19.3498 4.57703 19.7782 5.53487 20.5973C6.6278 21.5442 8.11809 21.5442 9.21102 20.5973C11.198 18.9719 13.836 18.9719 15.823 20.5973C16.9159 21.5442 18.4062 21.5442 19.4991 20.5973C20.4453 19.7886 21.5884 19.3607 22.7583 19.3773H24.1283V22.5873H22.7583Z" fill="#9893A3" fill-opacity="0.6"/>
<path d="M34.9529 20.1372C33.8995 20.1372 33.1329 19.8039 32.6529 19.1372C32.1729 18.4572 31.9329 17.4906 31.9329 16.2372V10.0772H34.2329V15.9372C34.2329 16.7506 34.3529 17.3239 34.5929 17.6572C34.8329 17.9906 35.2195 18.1572 35.7529 18.1572C36.1795 18.1572 36.5529 18.0506 36.8729 17.8372C37.2062 17.6239 37.5595 17.2772 37.9329 16.7972V10.0772H40.2329V19.8972H38.3529L38.1729 18.4572H38.1129C37.6862 18.9639 37.2195 19.3706 36.7129 19.6772C36.2195 19.9839 35.6329 20.1372 34.9529 20.1372Z" fill="#9893A3" fill-opacity="0.6"/>
<path d="M42.1461 19.8972V10.0772H44.0461L44.2061 11.4172H44.2861C44.6995 10.9772 45.1461 10.6039 45.6261 10.2972C46.1195 9.99056 46.6728 9.83722 47.2861 9.83722C48.0061 9.83722 48.5795 9.99056 49.0061 10.2972C49.4461 10.6039 49.7795 11.0372 50.0061 11.5972C50.4728 11.0906 50.9595 10.6706 51.4661 10.3372C51.9728 10.0039 52.5395 9.83722 53.1661 9.83722C54.2061 9.83722 54.9728 10.1772 55.4661 10.8572C55.9595 11.5239 56.2061 12.4839 56.2061 13.7372V19.8972H53.8861V14.0372C53.8861 13.2239 53.7595 12.6506 53.5061 12.3172C53.2661 11.9839 52.8928 11.8172 52.3861 11.8172C51.7728 11.8172 51.0861 12.2239 50.3261 13.0372V19.8972H48.0261V14.0372C48.0261 13.2239 47.8995 12.6506 47.6461 12.3172C47.4061 11.9839 47.0261 11.8172 46.5061 11.8172C45.8928 11.8172 45.2061 12.2239 44.4461 13.0372V19.8972H42.1461Z" fill="#9893A3" fill-opacity="0.6"/>
<path d="M62.7616 20.1372C62.3083 20.1372 61.8483 20.0306 61.3816 19.8172C60.9283 19.5906 60.4949 19.2706 60.0816 18.8572H60.0216L59.8216 19.8972H58.0016V5.77722H60.3016V9.41722L60.2416 11.0572C60.6549 10.6972 61.1016 10.4039 61.5816 10.1772C62.0749 9.95056 62.5749 9.83722 63.0816 9.83722C63.6949 9.83722 64.2416 9.95722 64.7216 10.1972C65.2016 10.4239 65.6083 10.7572 65.9416 11.1972C66.2749 11.6239 66.5283 12.1439 66.7016 12.7572C66.8749 13.3706 66.9616 14.0572 66.9616 14.8172C66.9616 15.6572 66.8416 16.4106 66.6016 17.0772C66.3749 17.7306 66.0683 18.2839 65.6816 18.7372C65.2949 19.1906 64.8483 19.5372 64.3416 19.7772C63.8349 20.0172 63.3083 20.1372 62.7616 20.1372ZM62.2816 18.2372C62.9349 18.2372 63.4816 17.9572 63.9216 17.3972C64.3616 16.8239 64.5816 15.9772 64.5816 14.8572C64.5816 13.8706 64.4149 13.1039 64.0816 12.5572C63.7483 12.0106 63.2083 11.7372 62.4616 11.7372C61.7683 11.7372 61.0483 12.1039 60.3016 12.8372V17.4172C60.6483 17.7239 60.9883 17.9372 61.3216 18.0572C61.6683 18.1772 61.9883 18.2372 62.2816 18.2372Z" fill="#9893A3" fill-opacity="0.6"/>
<path d="M68.2711 19.8972V10.0772H70.1711L70.3311 11.8172H70.4111C70.7578 11.1772 71.1778 10.6906 71.6711 10.3572C72.1645 10.0106 72.6711 9.83722 73.1911 9.83722C73.6578 9.83722 74.0311 9.90389 74.3111 10.0372L73.9111 12.0372C73.7378 11.9839 73.5778 11.9439 73.4311 11.9172C73.2845 11.8906 73.1045 11.8772 72.8911 11.8772C72.5045 11.8772 72.0978 12.0306 71.6711 12.3372C71.2445 12.6306 70.8778 13.1506 70.5711 13.8972V19.8972H68.2711Z" fill="#9893A3" fill-opacity="0.6"/>
<path d="M78.7368 20.1372C78.0568 20.1372 77.4234 20.0239 76.8368 19.7972C76.2501 19.5572 75.7368 19.2172 75.2968 18.7772C74.8568 18.3372 74.5101 17.8039 74.2568 17.1772C74.0168 16.5372 73.8968 15.8106 73.8968 14.9972C73.8968 14.1972 74.0234 13.4772 74.2768 12.8372C74.5301 12.1972 74.8634 11.6572 75.2768 11.2172C75.7034 10.7772 76.1901 10.4372 76.7368 10.1972C77.2834 9.95722 77.8434 9.83722 78.4168 9.83722C79.0834 9.83722 79.6701 9.95056 80.1768 10.1772C80.6834 10.4039 81.1034 10.7239 81.4368 11.1372C81.7834 11.5506 82.0434 12.0439 82.2168 12.6172C82.3901 13.1906 82.4768 13.8172 82.4768 14.4972C82.4768 14.7239 82.4634 14.9372 82.4368 15.1372C82.4234 15.3372 82.4034 15.4972 82.3768 15.6172H76.1368C76.2434 16.4972 76.5501 17.1772 77.0568 17.6572C77.5768 18.1239 78.2368 18.3572 79.0368 18.3572C79.4634 18.3572 79.8568 18.2972 80.2168 18.1772C80.5901 18.0439 80.9568 17.8639 81.3168 17.6372L82.0968 19.0772C81.6301 19.3839 81.1101 19.6372 80.5368 19.8372C79.9634 20.0372 79.3634 20.1372 78.7368 20.1372ZM76.1168 14.0572H80.4768C80.4768 13.2972 80.3101 12.7039 79.9768 12.2772C79.6568 11.8372 79.1568 11.6172 78.4768 11.6172C77.8901 11.6172 77.3768 11.8239 76.9368 12.2372C76.4968 12.6506 76.2234 13.2572 76.1168 14.0572Z" fill="#9893A3" fill-opacity="0.6"/>
<path d="M85.9135 20.1372C85.0868 20.1372 84.5068 19.8906 84.1735 19.3972C83.8402 18.9039 83.6735 18.2306 83.6735 17.3772V5.77722H85.9735V17.4972C85.9735 17.7772 86.0268 17.9772 86.1335 18.0972C86.2402 18.2039 86.3535 18.2572 86.4735 18.2572C86.5268 18.2572 86.5735 18.2572 86.6135 18.2572C86.6668 18.2572 86.7402 18.2439 86.8335 18.2172L87.1335 19.9372C86.8268 20.0706 86.4202 20.1372 85.9135 20.1372Z" fill="#9893A3" fill-opacity="0.6"/>
<path d="M90.3432 20.1372C89.5165 20.1372 88.9365 19.8906 88.6032 19.3972C88.2698 18.9039 88.1032 18.2306 88.1032 17.3772V5.77722H90.4032V17.4972C90.4032 17.7772 90.4565 17.9772 90.5632 18.0972C90.6698 18.2039 90.7832 18.2572 90.9032 18.2572C90.9565 18.2572 91.0032 18.2572 91.0432 18.2572C91.0965 18.2572 91.1698 18.2439 91.2632 18.2172L91.5632 19.9372C91.2565 20.0706 90.8498 20.1372 90.3432 20.1372Z" fill="#9893A3" fill-opacity="0.6"/>
<path d="M94.9129 20.1372C94.0462 20.1372 93.3462 19.8772 92.8129 19.3572C92.2795 18.8239 92.0129 18.1239 92.0129 17.2572C92.0129 16.7372 92.1195 16.2772 92.3329 15.8772C92.5595 15.4639 92.9062 15.1106 93.3729 14.8172C93.8529 14.5239 94.4529 14.2772 95.1729 14.0772C95.9062 13.8772 96.7795 13.7239 97.7929 13.6172C97.7795 13.3639 97.7395 13.1239 97.6729 12.8972C97.6195 12.6572 97.5195 12.4506 97.3729 12.2772C97.2395 12.0906 97.0595 11.9506 96.8329 11.8572C96.6062 11.7506 96.3262 11.6972 95.9929 11.6972C95.5129 11.6972 95.0395 11.7906 94.5729 11.9772C94.1195 12.1639 93.6729 12.3906 93.2329 12.6572L92.3929 11.1172C92.9395 10.7706 93.5529 10.4706 94.2329 10.2172C94.9129 9.96389 95.6462 9.83722 96.4329 9.83722C97.6595 9.83722 98.5729 10.2039 99.1729 10.9372C99.7862 11.6572 100.093 12.7039 100.093 14.0772V19.8972H98.1929L98.0329 18.8172H97.9529C97.5129 19.1906 97.0395 19.5039 96.5329 19.7572C96.0395 20.0106 95.4995 20.1372 94.9129 20.1372ZM95.6529 18.3372C96.0529 18.3372 96.4129 18.2439 96.7329 18.0572C97.0662 17.8706 97.4195 17.6039 97.7929 17.2572V15.0572C97.1262 15.1372 96.5662 15.2439 96.1129 15.3772C95.6595 15.5106 95.2929 15.6639 95.0129 15.8372C94.7329 15.9972 94.5329 16.1839 94.4129 16.3972C94.2929 16.6106 94.2329 16.8372 94.2329 17.0772C94.2329 17.5172 94.3662 17.8372 94.6329 18.0372C94.8995 18.2372 95.2395 18.3372 95.6529 18.3372Z" fill="#9893A3" fill-opacity="0.6"/>
</svg>
