<svg width="106" height="28" viewBox="0 0 106 28" fill="none" xmlns="http://www.w3.org/2000/svg">
<path fill-rule="evenodd" clip-rule="evenodd" d="M26.2651 5.12085C27.1594 6.09278 27.8963 7.17721 28.453 8.34085C29.2639 10.0375 29.6811 11.8694 29.6782 13.7208C29.6722 21.1942 23.0525 27.2543 14.877 27.2708C12.9748 27.2699 11.0909 26.9302 9.33072 26.2708C8.07525 25.8148 6.89669 25.1987 5.83008 24.4408C1.29345 21.2804 -0.852832 16.0182 0.312982 10.9143C1.4788 5.81032 5.74923 1.77289 11.2903 0.535925C16.8313 -0.701037 22.6569 1.08261 26.2651 5.12085ZM19.8103 3.91087C18.2615 3.25201 16.5739 2.9107 14.8656 2.91087L14.8765 2.89087C10.8257 2.88811 7.0557 4.78265 4.88765 7.91062C2.71959 11.0386 2.45578 14.9638 4.18865 18.3109C4.68278 17.8363 4.98728 17.2233 5.05287 16.5709C5.45075 14.0583 7.60988 12.0846 10.3585 11.7209C11.9093 11.5923 13.1478 10.4853 13.3231 9.07087C13.721 6.55829 15.8801 4.58458 18.6288 4.22087C19.0355 4.16423 19.4326 4.06004 19.8103 3.91087ZM5.81875 20.7208C5.86251 20.6841 5.90627 20.6486 5.95003 20.613C6.03754 20.5419 6.12505 20.4708 6.21257 20.3908C7.1858 19.5283 7.81052 18.3897 7.98477 17.1608C8.05542 16.4701 8.39281 15.8249 8.9365 15.3408C9.45968 14.843 10.1639 14.5371 10.9166 14.4808C13.6652 14.1171 15.8243 12.1434 16.2222 9.63082C16.2695 8.90833 16.6087 8.22766 17.1739 7.72082C17.71 7.23267 18.421 6.93792 19.1759 6.89082C20.4054 6.73618 21.5521 6.23653 22.4577 5.46082C23.4889 6.24289 24.3627 7.18371 25.0395 8.24082C24.9979 8.29217 24.9502 8.33912 24.8972 8.38082C24.3751 8.88301 23.6718 9.19558 22.9172 9.26082C20.1651 9.61826 18.0026 11.5951 17.6115 14.1108C17.4526 15.5302 16.2221 16.6508 14.6688 16.7908C11.9125 17.1517 9.7421 19.1235 9.33033 21.6408C9.27145 22.1295 9.08784 22.5988 8.79429 23.0108C7.6719 22.4017 6.66665 21.628 5.81875 20.7208ZM11.5836 24.1609C12.6506 24.4406 13.7553 24.582 14.8652 24.5809V24.5309C18.5287 24.5179 21.9791 22.9547 24.2093 20.2976C26.4394 17.6406 27.198 14.1892 26.2634 10.9509C25.433 11.4877 24.4717 11.8309 23.4631 11.9509C21.9142 12.0953 20.6896 13.2149 20.5315 14.6309C20.1324 17.1466 17.968 19.1212 15.2153 19.4809C13.6664 19.6253 12.4417 20.7449 12.2837 22.1609C12.1859 22.861 11.9486 23.5389 11.5836 24.1609Z" fill="#9893A3" fill-opacity="0.6"/>
<path d="M40.6897 19.3914H42.9302C43.5797 19.3914 43.9044 19.0007 43.9044 18.2195V13.3367C43.9044 12.5554 43.5797 12.1648 42.9302 12.1648H40.6897C40.0403 12.1648 39.7156 12.5554 39.7156 13.3367V18.2195C39.7156 19.0007 40.0403 19.3914 40.6897 19.3914ZM40.6897 21.1492C38.7415 21.1492 37.7673 20.1726 37.7673 18.2195V6.89136L39.6182 6.01245H39.7156V10.7097C39.9754 10.5079 40.3001 10.407 40.6897 10.407H42.9302C44.8785 10.407 45.8527 11.3835 45.8527 13.3367V18.2195C45.8527 20.1726 44.8785 21.1492 42.9302 21.1492H40.6897Z" fill="#9893A3" fill-opacity="0.6"/>
<path d="M50.4058 8.24878C50.1785 8.0144 50.0648 7.73446 50.0648 7.40894C50.0648 7.0769 50.1785 6.7937 50.4058 6.55933C50.6331 6.32495 50.9091 6.20776 51.2338 6.20776C51.5585 6.20776 51.8345 6.32495 52.0618 6.55933C52.2891 6.7937 52.4027 7.0769 52.4027 7.40894C52.4027 7.73446 52.2891 8.0144 52.0618 8.24878C51.8345 8.48315 51.5585 8.60034 51.2338 8.60034C50.9091 8.60034 50.6331 8.48315 50.4058 8.24878ZM50.2596 21.5398V10.8953L52.1105 10.0164H52.2079V20.6609L50.3571 21.5398H50.2596Z" fill="#9893A3" fill-opacity="0.6"/>
<path d="M56.6149 21.5398V13.3367C56.6149 11.3835 57.589 10.407 59.5373 10.407H61.7778C63.7261 10.407 64.7002 11.3835 64.7002 13.3367V20.6609L62.8494 21.5398H62.7519V13.3367C62.7519 12.5554 62.4272 12.1648 61.7778 12.1648H59.5373C58.8879 12.1648 58.5632 12.5554 58.5632 13.3367V20.6609L56.7123 21.5398H56.6149Z" fill="#9893A3" fill-opacity="0.6"/>
<path d="M71.0555 19.3914H73.1012C73.7506 19.3914 74.0753 19.0007 74.0753 18.2195V16.8816C74.0753 16.1003 73.7506 15.7097 73.1012 15.7097H71.0555C70.4061 15.7097 70.0813 16.1003 70.0813 16.8816V18.2195C70.0813 19.0007 70.4061 19.3914 71.0555 19.3914ZM71.0555 21.1492C69.1072 21.1492 68.1331 20.1726 68.1331 18.2195V16.8816C68.1331 14.9285 69.1072 13.9519 71.0555 13.9519H73.1012C73.4389 13.9519 73.7636 14.0496 74.0753 14.2449V13.3367C74.0753 12.5554 73.7506 12.1648 73.1012 12.1648H69.6138V12.0671L70.3931 10.407H73.1012C75.0494 10.407 76.0236 11.3835 76.0236 13.3367V20.6609L74.1727 21.5398H74.0753V20.8562C73.8285 21.0515 73.5038 21.1492 73.1012 21.1492H71.0555Z" fill="#9893A3" fill-opacity="0.6"/>
<path d="M81.2293 21.5398V12.1843H78.7258V12.0867L79.5149 10.407H81.2293V6.89136L83.0802 6.01245H83.1776V10.407H85.6811V10.5046L84.8921 12.1843H83.1776V20.6609L81.3268 21.5398H81.2293Z" fill="#9893A3" fill-opacity="0.6"/>
<path d="M91.3058 19.3914H93.5463C94.1957 19.3914 94.5204 19.0007 94.5204 18.2195V13.3367C94.5204 12.5554 94.1957 12.1648 93.5463 12.1648H91.3058C90.6564 12.1648 90.3317 12.5554 90.3317 13.3367V18.2195C90.3317 19.0007 90.6564 19.3914 91.3058 19.3914ZM91.3058 21.1492C89.3575 21.1492 88.3834 20.1726 88.3834 18.2195V13.3367C88.3834 11.3835 89.3575 10.407 91.3058 10.407H93.5463C95.4946 10.407 96.4687 11.3835 96.4687 13.3367V18.2195C96.4687 20.1726 95.4946 21.1492 93.5463 21.1492H91.3058Z" fill="#9893A3" fill-opacity="0.6"/>
<path d="M100.389 21.5398V13.3367C100.389 11.3835 101.363 10.407 103.311 10.407H105.746V10.5046L104.967 12.1648H103.311C102.662 12.1648 102.337 12.5554 102.337 13.3367V20.6609L100.486 21.5398H100.389Z" fill="#9893A3" fill-opacity="0.6"/>
</svg>
