<svg width="82" height="27" viewBox="0 0 82 27" fill="none" xmlns="http://www.w3.org/2000/svg">
<path d="M15.8179 11.6363C14.8815 12.4047 14.4135 13.4734 14.5413 14.5517L14.5193 14.5338C14.6507 15.8028 14.0894 17.0544 12.9852 17.9549C11.881 18.8554 10.3462 19.3131 8.79022 19.206L8.81219 19.2239C6.92821 19.0809 5.13655 19.9166 4.33254 21.3135C3.52853 22.7103 3.88482 24.3683 5.22336 25.4589C6.5619 26.5495 8.59526 26.8386 10.3073 26.1816C12.0194 25.5247 13.0426 24.0628 12.8655 22.5265L12.8887 22.5444C12.7574 21.2755 13.3186 20.0238 14.4228 19.1233C15.527 18.2228 17.0618 17.7651 18.6178 17.8722L18.5946 17.8543C20.6652 18.0062 22.5918 16.9766 23.2477 15.3678C23.9035 13.7589 23.1162 11.9935 21.3463 11.1042C19.5763 10.2149 17.2888 10.4352 15.8216 11.6363H15.8179Z" fill="#9E99FF"/>
<path d="M7.65296 14.8916C8.58957 14.1233 9.0572 13.0544 8.92839 11.9762L8.95158 11.9941C8.82013 10.7248 9.38172 9.47274 10.4865 8.57218C11.5912 7.67161 13.1267 7.21416 14.6831 7.3219L14.6599 7.30399C16.5434 7.44788 18.3353 6.61315 19.14 5.21695C19.9448 3.82076 19.5896 2.16296 18.2519 1.07207C16.9142 -0.0188157 14.8814 -0.308507 13.1694 0.347777C11.4574 1.00406 10.4338 2.46538 10.6103 4.0014L10.5883 3.98348C10.7196 5.25245 10.1584 6.5041 9.05419 7.40458C7.95001 8.30507 6.41521 8.76279 4.8592 8.65568L4.88117 8.67359C2.81069 8.52217 0.88443 9.55204 0.228996 11.1609C-0.426439 12.7697 0.361118 14.5349 2.13105 15.424C3.90098 16.3131 6.18837 16.0927 7.6554 14.8916H7.65296Z" fill="#6C63FF"/>
<path d="M79.0848 18.2744C80.2342 18.2744 81.166 17.3653 81.166 16.2439C81.166 15.1225 80.2342 14.2134 79.0848 14.2134C77.9354 14.2134 77.0037 15.1225 77.0037 16.2439C77.0037 17.3653 77.9354 18.2744 79.0848 18.2744Z" fill="#6C63FF"/>
<path d="M38.8659 11.2234H36.7415V18.2747H34.2872V11.2234H32.9353V10.0575L34.2872 9.40705V8.75665C34.2872 7.74667 34.5393 7.00902 35.0436 6.5437C35.5479 6.07837 36.3553 5.8457 37.4657 5.8457C38.3134 5.8457 39.0671 5.96997 39.7269 6.21849L39.0993 7.9952C38.6057 7.84186 38.1497 7.76518 37.7313 7.76518C37.3826 7.76518 37.1305 7.86829 36.9749 8.07452C36.8193 8.27546 36.7415 8.53456 36.7415 8.85183V9.40705H38.8659V11.2234Z" fill="#2F2E41"/>
<path d="M45.3673 18.2747L45.0374 17.1405H44.9086C44.6458 17.5529 44.2729 17.8728 43.7901 18.1002C43.3073 18.3223 42.7574 18.4334 42.1405 18.4334C41.0837 18.4334 40.287 18.1557 39.7505 17.6005C39.2141 17.04 38.9458 16.2363 38.9458 15.1893V9.40705H41.4002V14.5865C41.4002 15.2263 41.5155 15.7075 41.7462 16.03C41.9769 16.3473 42.3443 16.5059 42.8486 16.5059C43.5353 16.5059 44.0315 16.2812 44.3373 15.8318C44.6431 15.377 44.796 14.6261 44.796 13.5791V9.40705H47.2503V18.2747H45.3673Z" fill="#2F2E41"/>
<path d="M54.8139 15.6414C54.8139 16.5509 54.492 17.2436 53.8483 17.7195C53.2099 18.1954 52.2523 18.4334 50.9755 18.4334C50.321 18.4334 49.7631 18.3884 49.3017 18.2985C48.8404 18.2139 48.4085 18.087 48.0062 17.9178V15.919C48.4622 16.1305 48.9745 16.3077 49.5432 16.4504C50.1172 16.5932 50.6214 16.6646 51.056 16.6646C51.9465 16.6646 52.3918 16.4108 52.3918 15.9031C52.3918 15.7128 52.3328 15.5594 52.2147 15.4431C52.0967 15.3215 51.8929 15.1866 51.6032 15.0386C51.3135 14.8852 50.9272 14.7081 50.4444 14.5072C49.7524 14.2216 49.2427 13.9572 48.9155 13.714C48.5936 13.4707 48.3576 13.1931 48.2074 12.8811C48.0625 12.5639 47.9901 12.1752 47.9901 11.7152C47.9901 10.9273 48.2986 10.3192 48.9155 9.89089C49.5378 9.45728 50.4176 9.24048 51.5549 9.24048C52.6385 9.24048 53.6927 9.47315 54.7174 9.93848L53.977 11.6835C53.5264 11.4931 53.1053 11.3371 52.7137 11.2155C52.322 11.0939 51.9224 11.0331 51.5147 11.0331C50.7904 11.0331 50.4283 11.2261 50.4283 11.6121C50.4283 11.8289 50.5437 12.0166 50.7743 12.1752C51.0104 12.3339 51.5227 12.5692 52.3113 12.8811C53.0141 13.1614 53.5291 13.4231 53.8563 13.6664C54.1836 13.9096 54.425 14.1899 54.5806 14.5072C54.7361 14.8244 54.8139 15.2025 54.8139 15.6414Z" fill="#2F2E41"/>
<path d="M59.1668 10.9617C58.6464 10.9617 58.2387 11.1256 57.9436 11.4534C57.6486 11.776 57.4796 12.236 57.4367 12.8336H60.8808C60.87 12.236 60.7118 11.776 60.406 11.4534C60.1002 11.1256 59.6871 10.9617 59.1668 10.9617ZM59.5128 18.4334C58.0643 18.4334 56.9324 18.0394 56.117 17.2515C55.3015 16.4636 54.8938 15.3479 54.8938 13.9043C54.8938 12.4185 55.2694 11.271 56.0204 10.462C56.7768 9.64765 57.8202 9.24048 59.1507 9.24048C60.4221 9.24048 61.4119 9.59741 62.12 10.3113C62.8281 11.0251 63.1822 12.0113 63.1822 13.2698V14.4437H57.3804C57.4072 15.1311 57.6137 15.6678 58 16.0538C58.3862 16.4399 58.928 16.6329 59.6255 16.6329C60.1673 16.6329 60.6796 16.5773 61.1624 16.4663C61.6452 16.3552 62.1495 16.1781 62.6753 15.9349V17.8068C62.2461 18.0183 61.7874 18.1743 61.2992 18.2747C60.811 18.3805 60.2156 18.4334 59.5128 18.4334Z" fill="#2F2E41"/>
<path d="M66.3441 18.2747H63.8898V5.93295H66.3441V18.2747Z" fill="#2F2E41"/>
<path d="M66.3516 9.40705H69.0393L70.7372 14.3961C70.8821 14.8297 70.9813 15.3426 71.035 15.9349H71.0832C71.1423 15.3902 71.2576 14.8773 71.4293 14.3961L73.095 9.40705H75.7263L71.9201 19.409C71.5714 20.3343 71.0725 21.027 70.4234 21.4871C69.7796 21.9471 69.0259 22.1771 68.1622 22.1771C67.7384 22.1771 67.3226 22.1322 66.9149 22.0423V20.1228C67.21 20.1916 67.5319 20.2259 67.8806 20.2259C68.3151 20.2259 68.6933 20.0937 69.0152 19.8293C69.3424 19.5702 69.5972 19.1763 69.7796 18.6475L69.9245 18.2113L66.3516 9.40705Z" fill="#2F2E41"/>
</svg>
