<svg width="84" height="33" viewBox="0 0 84 33" fill="none" xmlns="http://www.w3.org/2000/svg">
<path d="M0.100586 18.8352H2.61265V29.5703H0.100586V18.8352Z" fill="#9893A3" fill-opacity="0.6"/>
<path fill-rule="evenodd" clip-rule="evenodd" d="M6.82355 22.2866C5.15295 22.8921 4.06566 24.3153 4.06905 25.8922C4.05772 26.9281 4.52545 27.9243 5.36673 28.6561C6.20801 29.3879 7.35196 29.7937 8.54052 29.7819C10.3498 29.7819 11.9808 28.8316 12.6724 27.3745C13.364 25.9174 12.9799 24.2406 11.6994 23.1267C10.4188 22.0127 8.49415 21.6811 6.82355 22.2866ZM8.50811 24.2431C9.57424 24.2272 10.4558 24.9632 10.4834 25.8922C10.5117 26.3523 10.3178 26.8017 9.94881 27.1316C9.57978 27.4616 9.06921 27.6419 8.54074 27.629C7.47446 27.6287 6.60775 26.8794 6.5988 25.9502C6.58984 25.0209 7.44199 24.259 8.50811 24.2431Z" fill="#9893A3" fill-opacity="0.6"/>
<path fill-rule="evenodd" clip-rule="evenodd" d="M33.2054 29.2373V22.246L30.7352 22.2679V22.9977C30.1336 22.3583 29.2211 22.0039 28.2733 22.0417C25.9056 22.0417 23.9861 23.7146 23.9861 25.7782C23.9861 27.8418 25.9056 29.5146 28.2733 29.5146C29.2218 29.5559 30.1361 29.2009 30.7352 28.5586V29.2373C30.7838 29.6883 30.5894 30.1335 30.209 30.4422C29.8285 30.7509 29.3052 30.8881 28.7925 30.8136C28.0059 30.8704 27.2592 30.503 26.9084 29.8868L24.7481 30.9742C25.5925 32.1721 27.1335 32.8591 28.7423 32.7549C30.9864 32.7549 33.2054 31.7113 33.2054 29.2373ZM29.5329 24.0819C30.2931 24.3807 30.7686 25.052 30.7344 25.7781C30.75 26.248 30.5368 26.7016 30.1475 27.027C29.7583 27.3523 29.2293 27.519 28.6913 27.4858C27.8575 27.4852 27.1077 27.043 26.797 26.3686C26.4863 25.6943 26.677 24.923 27.2788 24.42C27.8807 23.917 28.7728 23.7832 29.5329 24.0819Z" fill="#9893A3" fill-opacity="0.6"/>
<path fill-rule="evenodd" clip-rule="evenodd" d="M16.6351 22.3378C14.9645 22.9433 13.8772 24.3665 13.8806 25.9434C13.8692 26.9793 14.337 27.9755 15.1783 28.7073C16.0195 29.4392 17.1635 29.8449 18.352 29.8331C20.1613 29.8331 21.7923 28.8828 22.4839 27.4257C23.1755 25.9686 22.7914 24.2919 21.5109 23.1779C20.2303 22.0639 18.3057 21.7323 16.6351 22.3378ZM18.319 24.2943C19.3851 24.2784 20.2667 25.0144 20.2943 25.9434H20.2776C20.3056 26.4009 20.114 26.8479 19.7486 27.1774C19.3833 27.5068 18.8772 27.689 18.3516 27.6803C17.2854 27.6799 16.4187 26.9307 16.4097 26.0014C16.4007 25.0721 17.2529 24.3102 18.319 24.2943Z" fill="#9893A3" fill-opacity="0.6"/>
<path fill-rule="evenodd" clip-rule="evenodd" d="M36.192 18.9155C35.3503 18.9155 34.668 19.5101 34.668 20.2437C34.6725 20.9756 35.3522 21.5679 36.192 21.5719C37.0336 21.5719 37.7159 20.9772 37.7159 20.2437C37.7159 19.5101 37.0336 18.9155 36.192 18.9155ZM37.4405 22.2141H34.9284V29.5703H37.4405V22.2141Z" fill="#9893A3" fill-opacity="0.6"/>
<path fill-rule="evenodd" clip-rule="evenodd" d="M47.3084 28.5674C48.0645 27.8372 48.4551 26.8743 48.3936 25.8922C48.4528 24.9113 48.0612 23.9503 47.3053 23.2216C46.5495 22.493 45.4917 22.0569 44.3659 22.0098C43.4174 21.9701 42.4974 22.2988 41.8539 22.9074V22.2141H39.3418V32.5332H41.8539V28.8843C42.4974 29.4929 43.4174 29.8216 44.3659 29.7819C45.4932 29.7348 46.5523 29.2976 47.3084 28.5674ZM43.8556 24.1851C44.9522 24.177 45.8538 24.9366 45.8816 25.8921H45.8648C45.9046 26.3755 45.7028 26.8502 45.3112 27.1943C44.9196 27.5383 44.3766 27.7181 43.8217 27.6874C42.7253 27.6632 41.8537 26.8774 41.863 25.9217C41.8722 24.9659 42.759 24.1931 43.8556 24.1851Z" fill="#9893A3" fill-opacity="0.6"/>
<path d="M56.2154 27.3664C56.2154 29.0594 54.5407 29.7819 52.6985 29.7819C51.1929 29.8981 49.7576 29.2047 49.0728 28.0305L51.2666 26.9431C51.4501 27.49 52.0462 27.8516 52.6985 27.8115C53.3098 27.8115 53.6112 27.6437 53.6112 27.3518C53.6112 26.5417 49.4244 26.9723 49.4244 24.4326C49.4244 22.8271 50.9819 22.0171 52.7739 22.0171C54.1204 21.9814 55.3833 22.5848 56.073 23.5934L53.8708 24.6005C53.672 24.2067 53.2256 23.9521 52.732 23.951C52.2966 23.951 52.0286 24.0969 52.0286 24.367C52.0621 25.2062 56.2154 24.6443 56.2154 27.3664Z" fill="#9893A3" fill-opacity="0.6"/>
<path d="M65.4601 22.2141V29.5703H62.948V28.8843C62.3553 29.5026 61.4588 29.8363 60.5365 29.7819C58.8618 29.7819 57.3796 28.7238 57.3796 26.7315V22.2141H59.8917V26.4104C59.847 26.7725 59.9916 27.133 60.2855 27.3919C60.5793 27.6509 60.9913 27.7809 61.4073 27.7459C62.3284 27.7459 62.9732 27.2788 62.9732 26.2352V22.2141H65.4601Z" fill="#9893A3" fill-opacity="0.6"/>
<path d="M79.9796 25.0602V29.5702H77.4676V25.2499C77.4676 24.5201 77.0573 24.0385 76.2534 24.0385C75.4495 24.0385 74.9304 24.5566 74.9304 25.4251V29.5702H72.4183V25.2499C72.4183 24.5201 72.0164 24.0385 71.2041 24.0385C70.3919 24.0385 69.8895 24.5566 69.8895 25.4251V29.5702H67.3774V22.214H69.8895V22.8927C70.4229 22.2837 71.2738 21.9514 72.1504 22.0097C73.0317 21.9724 73.8708 22.3409 74.361 22.9803C74.9306 22.3122 75.8538 21.9457 76.806 22.0097C78.7152 22.0097 79.9796 23.2211 79.9796 25.0602Z" fill="#9893A3" fill-opacity="0.6"/>
<path d="M82.1247 22.1703C83.1606 22.1703 84.0004 21.4384 84.0004 20.5356C84.0004 19.6328 83.1606 18.9009 82.1247 18.9009C81.0888 18.9009 80.249 19.6328 80.249 20.5356C80.249 21.4384 81.0888 22.1703 82.1247 22.1703Z" fill="#9893A3" fill-opacity="0.6"/>
<path d="M24.4697 14.3007C28.326 14.3007 31.4523 11.246 31.4523 7.4777C31.4523 3.70944 28.326 0.654663 24.4697 0.654663C20.6133 0.654663 17.4871 3.70944 17.4871 7.4777C17.4871 11.246 20.6133 14.3007 24.4697 14.3007Z" fill="#9893A3" fill-opacity="0.4"/>
<path d="M41.8556 14.3007C45.712 14.3007 48.8382 11.246 48.8382 7.4777C48.8382 3.70944 45.712 0.654663 41.8556 0.654663C37.9993 0.654663 34.873 3.70944 34.873 7.4777C34.873 11.246 37.9993 14.3007 41.8556 14.3007Z" fill="#CFCFDE" fill-opacity="0.5"/>
<rect x="0.100586" y="0.654663" width="13.9652" height="13.6461" fill="#9893A3" fill-opacity="0.5"/>
</svg>
