<svg width="109" height="27" viewBox="0 0 109 27" fill="none" xmlns="http://www.w3.org/2000/svg">
<path fill-rule="evenodd" clip-rule="evenodd" d="M28.8526 9.06369C28.8528 5.34724 26.4644 2.01167 22.8378 0.663484C19.2112 -0.684698 15.0899 0.230927 12.4589 2.96936H0.536133V27H25.7095V15.7693C27.7078 14.0624 28.8508 11.624 28.8526 9.06369ZM24.0074 9.0637C24.0112 10.8431 22.8918 12.4494 21.1716 13.1329C19.4513 13.8164 17.4693 13.4424 16.1504 12.1855C14.8316 10.9286 14.4359 9.03644 15.148 7.39212C15.8601 5.7478 17.5397 4.67542 19.4029 4.67542C21.9421 4.67541 24.0021 6.63864 24.0074 9.0637ZM5.37959 22.3745H20.8657V17.968C20.3826 18.0445 19.8938 18.0841 19.4041 18.0866C14.1881 18.0816 9.96096 14.0448 9.95569 9.06369C9.95989 8.57109 10.0078 8.07971 10.099 7.59485H5.37959V22.3745Z" fill="#9893A3" fill-opacity="0.6"/>
<path d="M40.8543 20.2C39.9343 20.2 39.0276 20.0533 38.1343 19.76C37.2543 19.4533 36.5076 19.0133 35.8943 18.44L37.1943 16.1C37.8476 16.5267 38.4743 16.86 39.0743 17.1C39.6876 17.34 40.241 17.46 40.7343 17.46C41.281 17.46 41.5543 17.3 41.5543 16.98C41.5543 16.8067 41.441 16.6667 41.2143 16.56C41.001 16.4533 40.6543 16.3267 40.1743 16.18C39.3476 15.8867 38.6543 15.6133 38.0943 15.36C37.5476 15.1067 37.1343 14.8 36.8543 14.44C36.5876 14.0667 36.4543 13.5733 36.4543 12.96C36.4543 11.88 36.8543 10.9933 37.6543 10.3C38.4543 9.60668 39.561 9.26001 40.9743 9.26001C41.681 9.26001 42.3876 9.37334 43.0943 9.60001C43.8143 9.81334 44.5076 10.2067 45.1743 10.78L43.7343 13.1C43.0676 12.6867 42.501 12.3933 42.0343 12.22C41.581 12.0467 41.1743 11.96 40.8143 11.96C40.2543 11.96 39.9743 12.1467 39.9743 12.52C39.9743 12.72 40.081 12.8733 40.2943 12.98C40.5076 13.0867 40.8476 13.2067 41.3143 13.34C42.221 13.6067 42.961 13.88 43.5343 14.16C44.1076 14.4267 44.5276 14.7533 44.7943 15.14C45.0743 15.5267 45.2143 16.0333 45.2143 16.66C45.2143 17.7667 44.821 18.6333 44.0343 19.26C43.261 19.8867 42.201 20.2 40.8543 20.2Z" fill="#9893A3" fill-opacity="0.6"/>
<path d="M51.5938 20.2C50.7405 20.2 49.9738 19.96 49.2938 19.48C48.6138 19 48.0805 18.3467 47.6938 17.52C47.3072 16.6933 47.1138 15.7533 47.1138 14.7C47.1138 13.66 47.3205 12.7333 47.7338 11.92C48.1605 11.1067 48.7405 10.4667 49.4738 10C50.2072 9.52001 51.0405 9.28001 51.9738 9.28001C52.7605 9.28001 53.4272 9.44001 53.9738 9.76001C54.5338 10.08 55.0005 10.5267 55.3738 11.1V9.48001H58.6738V24.28H54.8738V18.44C54.2605 19.6133 53.1672 20.2 51.5938 20.2ZM53.0738 17C53.7805 17 54.3805 16.64 54.8738 15.92V14.04C54.7005 13.5733 54.4272 13.2 54.0538 12.92C53.6938 12.6267 53.3138 12.48 52.9138 12.48C52.3672 12.48 51.9072 12.7067 51.5338 13.16C51.1738 13.6133 50.9938 14.16 50.9938 14.8C50.9938 15.4533 51.1872 15.9867 51.5738 16.4C51.9605 16.8 52.4605 17 53.0738 17Z" fill="#9893A3" fill-opacity="0.6"/>
<path d="M61.503 16.4V9.48001H65.303V15.54C65.303 15.9933 65.403 16.3533 65.603 16.62C65.8164 16.8733 66.103 17 66.463 17C66.7564 17 67.0564 16.9333 67.363 16.8C67.6697 16.6667 67.9764 16.3733 68.283 15.92V9.48001H72.083V15.8C72.083 16.16 72.1364 16.4133 72.243 16.56C72.3497 16.6933 72.5364 16.7733 72.803 16.8V20C72.1497 20.1333 71.6164 20.2 71.203 20.2C69.9097 20.2 69.163 19.7133 68.963 18.74L68.883 18.36C68.3897 19.0133 67.7964 19.4867 67.103 19.78C66.423 20.06 65.6497 20.2 64.783 20.2C63.7297 20.2 62.9164 19.8733 62.343 19.22C61.783 18.5667 61.503 17.6267 61.503 16.4Z" fill="#9893A3" fill-opacity="0.6"/>
<path d="M74.7769 16.82C74.7769 16.1133 74.9703 15.4933 75.3569 14.96C75.7436 14.4133 76.2769 13.9867 76.9569 13.68C77.6503 13.3733 78.4369 13.22 79.3169 13.22C80.1703 13.22 80.8769 13.3533 81.4369 13.62V13.3C81.4369 12.8067 81.2903 12.44 80.9969 12.2C80.7169 11.96 80.2569 11.84 79.6169 11.84C79.0303 11.84 78.4769 11.94 77.9569 12.14C77.4503 12.3267 76.9169 12.6067 76.3569 12.98L75.2569 10.62C76.6436 9.72668 78.2236 9.28001 79.9969 9.28001C81.6636 9.28001 82.9503 9.66001 83.8569 10.42C84.7769 11.1667 85.2369 12.28 85.2369 13.76V15.8C85.2369 16.16 85.2903 16.4133 85.3969 16.56C85.5036 16.6933 85.6903 16.7733 85.9569 16.8V20C85.6503 20.0667 85.3569 20.1133 85.0769 20.14C84.8103 20.18 84.5703 20.2 84.3569 20.2C83.6769 20.2 83.1569 20.08 82.7969 19.84C82.4503 19.5867 82.2236 19.22 82.1169 18.74L82.0369 18.36C81.0769 19.5867 79.8836 20.2 78.4569 20.2C77.7636 20.2 77.1369 20.0533 76.5769 19.76C76.0169 19.4667 75.5769 19.0667 75.2569 18.56C74.9369 18.04 74.7769 17.46 74.7769 16.82ZM80.9369 17.08C81.2703 16.8533 81.4369 16.6067 81.4369 16.34V15.56C81.2236 15.48 80.9769 15.4133 80.6969 15.36C80.4303 15.3067 80.1903 15.28 79.9769 15.28C79.5236 15.28 79.1369 15.3933 78.8169 15.62C78.5103 15.8467 78.3569 16.1333 78.3569 16.48C78.3569 16.7733 78.4703 17.0133 78.6969 17.2C78.9369 17.3867 79.2369 17.48 79.5969 17.48C80.0903 17.48 80.5369 17.3467 80.9369 17.08Z" fill="#9893A3" fill-opacity="0.6"/>
<path d="M95.4696 12.72C94.7363 12.72 94.0696 12.8 93.4696 12.96C92.8696 13.12 92.4229 13.3867 92.1296 13.76V20H88.3296V9.48001H91.8096V11.48C92.1829 10.7733 92.6496 10.2333 93.2096 9.86001C93.7696 9.47334 94.3629 9.28001 94.9896 9.28001C95.2429 9.28001 95.4029 9.28668 95.4696 9.30001V12.72Z" fill="#9893A3" fill-opacity="0.6"/>
<path d="M102.83 20.2C101.603 20.2 100.557 19.9533 99.6899 19.46C98.8366 18.9667 98.1832 18.3133 97.7299 17.5C97.2899 16.6867 97.0699 15.8133 97.0699 14.88C97.0699 13.8667 97.2899 12.94 97.7299 12.1C98.1699 11.2467 98.8166 10.5667 99.6699 10.06C100.523 9.54001 101.577 9.28001 102.83 9.28001C104.083 9.28001 105.137 9.53334 105.99 10.04C106.843 10.5467 107.49 11.2133 107.93 12.04C108.37 12.8667 108.59 13.7667 108.59 14.74C108.59 15.1533 108.557 15.54 108.49 15.9H101.11C101.15 16.46 101.357 16.8667 101.73 17.12C102.103 17.36 102.51 17.48 102.95 17.48C103.363 17.48 103.75 17.3867 104.11 17.2C104.483 17.0133 104.73 16.7533 104.85 16.42L108.07 17.34C107.643 18.18 106.983 18.8667 106.09 19.4C105.197 19.9333 104.11 20.2 102.83 20.2ZM101.03 13.62H104.51C104.457 13.1133 104.27 12.7133 103.95 12.42C103.643 12.1267 103.25 11.98 102.77 11.98C102.29 11.98 101.897 12.1267 101.59 12.42C101.283 12.7133 101.097 13.1133 101.03 13.62Z" fill="#9893A3" fill-opacity="0.6"/>
</svg>
